<svg width="185" height="54" viewBox="0 0 185 54" fill="none" xmlns="http://www.w3.org/2000/svg">
<path d="M63.7791 15.5604H68.0535C69.1298 15.5604 69.8371 15.8064 70.3907 16.3292C70.6982 16.6367 70.9442 17.0979 70.9442 17.6515C70.9442 18.6663 70.3907 19.2198 69.6219 19.5273C70.6367 19.8348 71.2517 20.4499 71.2517 21.5569C71.2517 23.033 70.0832 23.8941 68.0535 23.8941H63.7791V15.5604ZM67.5 18.9123C68.2073 18.9123 68.5763 18.6663 68.5763 18.205C68.5763 17.7437 68.1765 17.4977 67.5 17.4977H66.0239V18.9738H67.5V18.9123ZM67.8075 22.1105C68.5148 22.1105 68.8838 21.803 68.8838 21.3417C68.8838 20.8804 68.4841 20.5729 67.7153 20.5729H65.9317V22.1412H67.8075V22.1105ZM76.6948 15.5604H79.0319V21.926H83.0604V23.9556H76.6948V15.5604ZM87.6424 19.7733C87.6424 17.3747 89.5797 15.3451 92.1629 15.3451C94.746 15.3451 96.6834 17.2825 96.6834 19.7118C96.6834 22.1105 94.746 24.0786 92.1629 24.0786C89.5797 24.1093 87.6424 22.172 87.6424 19.7733ZM94.3462 19.7733C94.3462 18.5433 93.4852 17.4362 92.1629 17.4362C90.9328 17.4362 90.0718 18.451 90.0718 19.6811C90.0718 20.9112 90.9328 21.926 92.2551 21.926C93.4852 22.0182 94.3462 21.0034 94.3462 19.7733ZM101.942 19.7733C101.942 17.2825 103.818 15.3451 106.37 15.3451C108.092 15.3451 109.169 16.0524 109.937 17.1287L108.154 18.451C107.692 17.836 107.139 17.4362 106.278 17.4362C105.109 17.4362 104.248 18.451 104.248 19.6811C104.248 20.9112 105.109 21.926 106.278 21.926C107.139 21.926 107.692 21.5262 108.154 20.9112L109.937 22.1412C109.169 23.2175 108.062 24.0171 106.216 24.0171C103.91 24.1093 101.942 22.3257 101.942 19.7733ZM115.411 15.5604H117.748V18.9738L120.639 15.5604H123.437L120.239 19.2198L123.499 24.0478H120.7L118.609 20.9419L117.748 21.8645V24.0478H115.411V15.5604ZM127.527 19.7733C127.527 17.2825 129.403 15.3451 131.956 15.3451C133.678 15.3451 134.754 16.0524 135.523 17.1287L133.739 18.451C133.278 17.836 132.724 17.4362 131.863 17.4362C130.695 17.4362 129.834 18.451 129.834 19.6811C129.834 20.9112 130.695 21.926 131.863 21.926C132.724 21.926 133.278 21.5262 133.739 20.9112L135.523 22.1412C134.754 23.2175 133.647 24.0171 131.802 24.0171C129.465 24.1093 127.527 22.3257 127.527 19.7733ZM140.904 15.5604H143.241V18.6663H146.194V15.5604H148.531V23.9556H146.194V20.7574H143.241V23.9556H140.904V15.5604ZM157.326 15.4989H159.571L163.138 23.9863H160.647L160.032 22.5102H156.772L156.157 23.9863H153.666L157.326 15.4989ZM159.325 20.6344L158.402 18.2358L157.479 20.6344H159.325ZM168.273 15.5604H170.61V23.9556H168.273V15.5604ZM176.515 15.5604H178.698L182.204 19.9886V15.5604H184.541V23.9556H182.511L178.944 19.3736V23.9556H176.607V15.5604H176.515ZM63.8406 35.7027C63.8406 33.3041 65.6242 31.336 68.115 31.336C69.6834 31.336 70.5137 31.8895 71.3747 32.6583L70.7597 33.3656C69.9909 32.6583 69.1914 32.197 68.115 32.197C66.2392 32.197 64.8554 33.6731 64.8554 35.6105C64.8554 37.5478 66.2699 39.1162 68.115 39.1162C69.2836 39.1162 70.0524 38.6549 70.8212 37.8861L71.4362 38.5011C70.5752 39.3622 69.5604 39.9772 68.0843 39.9772C65.6549 40.0695 63.8406 38.1321 63.8406 35.7027ZM80.5695 31.4282H81.4305L85.2437 39.9157H84.2289L83.2141 37.6708H78.6321L77.6173 39.9157H76.6025L80.5695 31.4282ZM82.9066 36.8098L80.9693 32.5353L79.0319 36.8098H82.9066ZM91.2096 31.5205H94.3155C96.1913 31.5205 97.4214 32.5353 97.4214 34.1651C97.4214 35.9487 95.9453 36.8713 94.0695 36.8713H92.0706V39.8235H91.1481V31.4897H91.2096V31.5205ZM94.254 36.1025C95.6686 36.1025 96.5911 35.3337 96.5911 34.2266C96.5911 33.0581 95.6686 32.443 94.3462 32.443H92.2551V36.164H94.2847V36.1025H94.254ZM103.664 31.5205H104.587V39.9157H103.664V31.5205ZM113.628 32.3508H110.829V31.4897H117.441V32.3508H114.642V39.885H113.72V32.3508H113.628ZM125.59 31.4282H126.451L130.264 39.9157H129.249L128.235 37.6708H123.653L122.638 39.9157H121.623L125.59 31.4282ZM127.927 36.8098L125.99 32.5353L124.052 36.8098H127.927ZM136.23 31.5205H137.153V39.0547H141.888V39.9157H136.199V31.5205H136.23Z" fill="white" fill-opacity="0.8"/>
<path d="M31.4283 34.5649C32.4644 34.5649 33.3042 33.7251 33.3042 32.6891C33.3042 31.6531 32.4644 30.8132 31.4283 30.8132C30.3923 30.8132 29.5525 31.6531 29.5525 32.6891C29.5525 33.7251 30.3923 34.5649 31.4283 34.5649Z" fill="white" fill-opacity="0.8"/>
<path opacity="0.9" d="M34.5341 38.1321C35.4852 38.1321 36.2562 37.3611 36.2562 36.41C36.2562 35.4589 35.4852 34.6879 34.5341 34.6879C33.583 34.6879 32.812 35.4589 32.812 36.41C32.812 37.3611 33.583 38.1321 34.5341 38.1321Z" fill="white" fill-opacity="0.8"/>
<path opacity="0.8" d="M37.1787 41.5456C38.0449 41.5456 38.747 40.8434 38.747 39.9772C38.747 39.111 38.0449 38.4089 37.1787 38.4089C36.3125 38.4089 35.6104 39.111 35.6104 39.9772C35.6104 40.8434 36.3125 41.5456 37.1787 41.5456Z" fill="white" fill-opacity="0.8"/>
<path opacity="0.7" d="M39.2083 44.713C39.8877 44.713 40.4384 44.1623 40.4384 43.4829C40.4384 42.8036 39.8877 42.2529 39.2083 42.2529C38.529 42.2529 37.9783 42.8036 37.9783 43.4829C37.9783 44.1623 38.529 44.713 39.2083 44.713Z" fill="white" fill-opacity="0.8"/>
<path opacity="0.6" d="M40.8383 47.8497C41.3988 47.8497 41.8531 47.3953 41.8531 46.8349C41.8531 46.2744 41.3988 45.8201 40.8383 45.8201C40.2778 45.8201 39.8235 46.2744 39.8235 46.8349C39.8235 47.3953 40.2778 47.8497 40.8383 47.8497Z" fill="white" fill-opacity="0.8"/>
<path opacity="0.5" d="M41.9145 51.0786C42.424 51.0786 42.837 50.6655 42.837 50.156C42.837 49.6465 42.424 49.2335 41.9145 49.2335C41.405 49.2335 40.9919 49.6465 40.9919 50.156C40.9919 50.6655 41.405 51.0786 41.9145 51.0786Z" fill="white" fill-opacity="0.8"/>
<path opacity="0.4" d="M42.5603 54C42.9509 54 43.2676 53.6834 43.2676 53.2927C43.2676 52.9021 42.9509 52.5854 42.5603 52.5854C42.1697 52.5854 41.853 52.9021 41.853 53.2927C41.853 53.6834 42.1697 54 42.5603 54Z" fill="white" fill-opacity="0.8"/>
<path d="M31.8895 28.2608C32.9255 28.2608 33.7654 27.421 33.7654 26.385C33.7654 25.3489 32.9255 24.5091 31.8895 24.5091C30.8535 24.5091 30.0137 25.3489 30.0137 26.385C30.0137 27.421 30.8535 28.2608 31.8895 28.2608Z" fill="white" fill-opacity="0.8"/>
<path opacity="0.9" d="M36.4101 26.3235C37.3612 26.3235 38.1322 25.5525 38.1322 24.6014C38.1322 23.6503 37.3612 22.8793 36.4101 22.8793C35.459 22.8793 34.688 23.6503 34.688 24.6014C34.688 25.5525 35.459 26.3235 36.4101 26.3235Z" fill="white" fill-opacity="0.8"/>
<path opacity="0.8" d="M40.5923 24.6936C41.4584 24.6936 42.1606 23.9915 42.1606 23.1253C42.1606 22.2591 41.4584 21.5569 40.5923 21.5569C39.7261 21.5569 39.0239 22.2591 39.0239 23.1253C39.0239 23.9915 39.7261 24.6936 40.5923 24.6936Z" fill="white" fill-opacity="0.8"/>
<path opacity="0.7" d="M44.4979 23.4943C45.1772 23.4943 45.728 22.9436 45.728 22.2642C45.728 21.5849 45.1772 21.0342 44.4979 21.0342C43.8185 21.0342 43.2678 21.5849 43.2678 22.2642C43.2678 22.9436 43.8185 23.4943 44.4979 23.4943Z" fill="white" fill-opacity="0.8"/>
<path opacity="0.6" d="M48.2187 22.8178C48.7791 22.8178 49.2335 22.3634 49.2335 21.8029C49.2335 21.2425 48.7791 20.7881 48.2187 20.7881C47.6582 20.7881 47.2039 21.2425 47.2039 21.8029C47.2039 22.3634 47.6582 22.8178 48.2187 22.8178Z" fill="white" fill-opacity="0.8"/>
<path opacity="0.5" d="M51.7243 22.7255C52.2338 22.7255 52.6469 22.3124 52.6469 21.8029C52.6469 21.2934 52.2338 20.8804 51.7243 20.8804C51.2148 20.8804 50.8018 21.2934 50.8018 21.8029C50.8018 22.3124 51.2148 22.7255 51.7243 22.7255Z" fill="white" fill-opacity="0.8"/>
<path opacity="0.4" d="M54.9224 22.8178C55.313 22.8178 55.6297 22.5011 55.6297 22.1105C55.6297 21.7199 55.313 21.4032 54.9224 21.4032C54.5318 21.4032 54.2151 21.7199 54.2151 22.1105C54.2151 22.5011 54.5318 22.8178 54.9224 22.8178Z" fill="white" fill-opacity="0.8"/>
<path d="M25.9852 25.8314C27.0212 25.8314 27.8611 24.9916 27.8611 23.9556C27.8611 22.9196 27.0212 22.0797 25.9852 22.0797C24.9492 22.0797 24.1094 22.9196 24.1094 23.9556C24.1094 24.9916 24.9492 25.8314 25.9852 25.8314Z" fill="white" fill-opacity="0.8"/>
<path opacity="0.9" d="M25.6777 20.7881C26.6287 20.7881 27.3998 20.0171 27.3998 19.066C27.3998 18.1149 26.6287 17.3439 25.6777 17.3439C24.7266 17.3439 23.9556 18.1149 23.9556 19.066C23.9556 20.0171 24.7266 20.7881 25.6777 20.7881Z" fill="white" fill-opacity="0.8"/>
<path opacity="0.8" d="M25.5854 16.2061C26.4516 16.2061 27.1538 15.504 27.1538 14.6378C27.1538 13.7716 26.4516 13.0695 25.5854 13.0695C24.7193 13.0695 24.0171 13.7716 24.0171 14.6378C24.0171 15.504 24.7193 16.2061 25.5854 16.2061Z" fill="white" fill-opacity="0.8"/>
<path opacity="0.7" d="M25.9852 11.9009C26.6645 11.9009 27.2153 11.3502 27.2153 10.6709C27.2153 9.99152 26.6645 9.4408 25.9852 9.4408C25.3058 9.4408 24.7551 9.99152 24.7551 10.6709C24.7551 11.3502 25.3058 11.9009 25.9852 11.9009Z" fill="white" fill-opacity="0.8"/>
<path opacity="0.6" d="M26.6925 8.0262C27.253 8.0262 27.7073 7.57186 27.7073 7.01139C27.7073 6.45093 27.253 5.99658 26.6925 5.99658C26.1321 5.99658 25.6777 6.45093 25.6777 7.01139C25.6777 7.57186 26.1321 8.0262 26.6925 8.0262Z" fill="white" fill-opacity="0.8"/>
<path opacity="0.5" d="M27.7072 4.58204C28.2167 4.58204 28.6298 4.169 28.6298 3.65949C28.6298 3.14998 28.2167 2.73694 27.7072 2.73694C27.1977 2.73694 26.7847 3.14998 26.7847 3.65949C26.7847 4.169 27.1977 4.58204 27.7072 4.58204Z" fill="white" fill-opacity="0.8"/>
<path opacity="0.4" d="M29.0296 1.41458C29.4202 1.41458 29.7368 1.09792 29.7368 0.70729C29.7368 0.316665 29.4202 0 29.0296 0C28.6389 0 28.3223 0.316665 28.3223 0.70729C28.3223 1.09792 28.6389 1.41458 29.0296 1.41458Z" fill="white" fill-opacity="0.8"/>
<path d="M21.8644 30.7517C22.9004 30.7517 23.7402 29.9119 23.7402 28.8758C23.7402 27.8398 22.9004 27 21.8644 27C20.8284 27 19.9885 27.8398 19.9885 28.8758C19.9885 29.9119 20.8284 30.7517 21.8644 30.7517Z" fill="white" fill-opacity="0.8"/>
<path opacity="0.9" d="M17.1288 29.3371C18.0799 29.3371 18.8509 28.5661 18.8509 27.615C18.8509 26.664 18.0799 25.8929 17.1288 25.8929C16.1777 25.8929 15.4067 26.664 15.4067 27.615C15.4067 28.5661 16.1777 29.3371 17.1288 29.3371Z" fill="white" fill-opacity="0.8"/>
<path opacity="0.8" d="M12.9157 27.861C13.7819 27.861 14.4841 27.1589 14.4841 26.2927C14.4841 25.4265 13.7819 24.7244 12.9157 24.7244C12.0496 24.7244 11.3474 25.4265 11.3474 26.2927C11.3474 27.1589 12.0496 27.861 12.9157 27.861Z" fill="white" fill-opacity="0.8"/>
<path opacity="0.7" d="M9.25619 25.8929C9.93554 25.8929 10.4863 25.3422 10.4863 24.6629C10.4863 23.9835 9.93554 23.4328 9.25619 23.4328C8.57684 23.4328 8.02612 23.9835 8.02612 24.6629C8.02612 25.3422 8.57684 25.8929 9.25619 25.8929Z" fill="white" fill-opacity="0.8"/>
<path opacity="0.6" d="M5.93497 23.8941C6.49544 23.8941 6.94978 23.4398 6.94978 22.8793C6.94978 22.3188 6.49544 21.8645 5.93497 21.8645C5.37451 21.8645 4.92017 22.3188 4.92017 22.8793C4.92017 23.4398 5.37451 23.8941 5.93497 23.8941Z" fill="white" fill-opacity="0.8"/>
<path opacity="0.5" d="M3.13666 21.7722C3.64617 21.7722 4.05921 21.3592 4.05921 20.8497C4.05921 20.3402 3.64617 19.9271 3.13666 19.9271C2.62715 19.9271 2.21411 20.3402 2.21411 20.8497C2.21411 21.3592 2.62715 21.7722 3.13666 21.7722Z" fill="white" fill-opacity="0.8"/>
<path opacity="0.4" d="M0.707289 19.4658C1.09791 19.4658 1.41458 19.1492 1.41458 18.7586C1.41458 18.3679 1.09791 18.0513 0.707289 18.0513C0.316664 18.0513 0 18.3679 0 18.7586C0 19.1492 0.316664 19.4658 0.707289 19.4658Z" fill="white" fill-opacity="0.8"/>
<path d="M25.2164 36.1025C26.2524 36.1025 27.0923 35.2627 27.0923 34.2267C27.0923 33.1907 26.2524 32.3508 25.2164 32.3508C24.1804 32.3508 23.3406 33.1907 23.3406 34.2267C23.3406 35.2627 24.1804 36.1025 25.2164 36.1025Z" fill="white" fill-opacity="0.8"/>
<path opacity="0.9" d="M22.6332 40.0695C23.5843 40.0695 24.3553 39.2985 24.3553 38.3474C24.3553 37.3963 23.5843 36.6253 22.6332 36.6253C21.6821 36.6253 20.9111 37.3963 20.9111 38.3474C20.9111 39.2985 21.6821 40.0695 22.6332 40.0695Z" fill="white" fill-opacity="0.8"/>
<path opacity="0.8" d="M20.081 43.5752C20.9472 43.5752 21.6494 42.873 21.6494 42.0068C21.6494 41.1406 20.9472 40.4385 20.081 40.4385C19.2149 40.4385 18.5127 41.1406 18.5127 42.0068C18.5127 42.873 19.2149 43.5752 20.081 43.5752Z" fill="white" fill-opacity="0.8"/>
<path opacity="0.7" d="M17.3438 46.1891C18.0232 46.1891 18.5739 45.6384 18.5739 44.959C18.5739 44.2797 18.0232 43.7289 17.3438 43.7289C16.6645 43.7289 16.1138 44.2797 16.1138 44.959C16.1138 45.6384 16.6645 46.1891 17.3438 46.1891Z" fill="white" fill-opacity="0.8"/>
<path opacity="0.6" d="M14.6994 48.5569C15.2598 48.5569 15.7142 48.1026 15.7142 47.5421C15.7142 46.9817 15.2598 46.5273 14.6994 46.5273C14.1389 46.5273 13.6846 46.9817 13.6846 47.5421C13.6846 48.1026 14.1389 48.5569 14.6994 48.5569Z" fill="white" fill-opacity="0.8"/>
<path opacity="0.5" d="M11.9011 50.5558C12.4106 50.5558 12.8236 50.1428 12.8236 49.6332C12.8236 49.1237 12.4106 48.7107 11.9011 48.7107C11.3916 48.7107 10.9785 49.1237 10.9785 49.6332C10.9785 50.1428 11.3916 50.5558 11.9011 50.5558Z" fill="white" fill-opacity="0.8"/>
<path opacity="0.4" d="M9.10255 51.8781C9.49318 51.8781 9.80984 51.5615 9.80984 51.1708C9.80984 50.7802 9.49318 50.4636 9.10255 50.4636C8.71193 50.4636 8.39526 50.7802 8.39526 51.1708C8.39526 51.5615 8.71193 51.8781 9.10255 51.8781Z" fill="white" fill-opacity="0.8"/>
</svg>
