<svg width="72" height="72" viewBox="0 0 72 72" fill="none" xmlns="http://www.w3.org/2000/svg">
<g filter="url(#filter0_b_325_699)">
<rect width="72" height="72" rx="12" fill="#09162E"/>
</g>
<path d="M48.896 20.2793C42.7741 17.9019 37.841 16 35.5825 16C33.3239 16 28.3314 17.9019 22.2689 20.2793C19.5944 20.2793 19 22.6568 19 22.6568C19 22.6568 19.3566 33.4146 19.6538 36.9212C20.0104 41.6761 22.2095 43.6969 22.2095 43.6969L25.2407 46.9658L35.6419 56L45.9837 46.9064L49.0149 43.6374C49.0149 43.6374 51.1545 41.6166 51.5706 36.8618C51.8678 33.3551 52.2244 22.5973 52.2244 22.5973C52.2244 22.5973 51.5111 20.2793 48.896 20.2793Z" fill="white"/>
<path d="M44.6166 36.9807C45.0921 37.4562 46.2214 39.7147 46.3403 40.3685C46.4591 41.0223 46.6969 41.26 46.2214 41.8544C45.0921 42.9837 42.477 44.3507 40.4562 45.1233C42.5958 42.8648 41.8232 41.4978 39.5646 40.9629C35.7013 40.0713 34.156 37.9316 33.4428 35.0788C32.7296 32.2259 31.9569 32.2259 30.9465 32.0475C29.8172 31.9287 28.9257 32.4042 24.5869 34.1872C23.5765 35.8514 22.8633 35.7325 22.8633 35.7325C21.4963 35.7325 21.6746 34.425 21.8529 34.1278C22.2095 33.474 22.8039 33.2957 23.5171 33.2957C24.2303 33.2957 24.5869 33.7117 24.5869 33.7117C24.5869 33.7117 24.8841 33.6523 30.2927 31.0371C30.5305 30.3834 31.422 28.0059 33.9183 28.0059C36.4146 28.0059 38.6731 30.3834 40.4562 30.3834C43.9629 25.5097 48.0639 22.4785 48.0639 22.4785L48.9554 25.0936L52.1649 22.8945C52.1649 22.7162 52.1649 22.5973 52.1649 22.5973C52.1649 22.5973 51.5111 20.2199 48.896 20.2199C42.7741 17.9019 37.841 16 35.5825 16C33.3239 16 28.3314 17.9019 22.2689 20.2793C19.5944 20.2793 19 22.6568 19 22.6568C19 22.6568 19.3566 33.4146 19.6538 36.9212C20.0104 41.6761 22.2095 43.6969 22.2095 43.6969L25.2407 46.9658L35.6419 56L45.9837 46.9064L49.0149 43.6374C49.0149 43.6374 51.1545 41.6166 51.5706 36.8618C51.63 36.208 51.6894 35.2571 51.7489 34.1278C50.0847 35.792 46.5186 36.9807 44.6166 36.9807Z" fill="url(#paint0_linear_325_699)"/>
<defs>
<filter id="filter0_b_325_699" x="-70" y="-70" width="212" height="212" filterUnits="userSpaceOnUse" color-interpolation-filters="sRGB">
<feFlood flood-opacity="0" result="BackgroundImageFix"/>
<feGaussianBlur in="BackgroundImage" stdDeviation="35"/>
<feComposite in2="SourceAlpha" operator="in" result="effect1_backgroundBlur_325_699"/>
<feBlend mode="normal" in="SourceGraphic" in2="effect1_backgroundBlur_325_699" result="shape"/>
</filter>
<linearGradient id="paint0_linear_325_699" x1="18.9882" y1="35.9659" x2="52.1657" y2="35.9659" gradientUnits="userSpaceOnUse">
<stop offset="0.4523" stop-color="#00A0E3"/>
<stop offset="0.5615" stop-color="#00579D"/>
</linearGradient>
</defs>
</svg>
