<svg width="16" height="16" viewBox="0 0 16 16" fill="none" xmlns="http://www.w3.org/2000/svg">
<path d="M8 0.200012C3.58 0.200012 0 3.78201 0 8.20001C0 11.7353 2.292 14.7333 5.47 15.79C5.87 15.8653 6.01667 15.618 6.01667 15.4053C6.01667 15.2153 6.01 14.712 6.00667 14.0453C3.78133 14.528 3.312 12.972 3.312 12.972C2.948 12.0487 2.422 11.802 2.422 11.802C1.69733 11.306 2.478 11.316 2.478 11.316C3.28133 11.372 3.70333 12.14 3.70333 12.14C4.41667 13.3633 5.576 13.01 6.03333 12.8053C6.10533 12.288 6.31133 11.9353 6.54 11.7353C4.76333 11.5353 2.896 10.8473 2.896 7.78201C2.896 6.90868 3.206 6.19535 3.71933 5.63535C3.62933 5.43335 3.35933 4.62001 3.78933 3.51801C3.78933 3.51801 4.45933 3.30335 5.98933 4.33801C6.62933 4.16001 7.30933 4.07201 7.98933 4.06801C8.66933 4.07201 9.34933 4.16001 9.98933 4.33801C11.5093 3.30335 12.1793 3.51801 12.1793 3.51801C12.6093 4.62001 12.3393 5.43335 12.2593 5.63535C12.7693 6.19535 13.0793 6.90868 13.0793 7.78201C13.0793 10.8553 11.2093 11.532 9.42933 11.7287C9.70933 11.9687 9.96933 12.4593 9.96933 13.2087C9.96933 14.2793 9.95933 15.1393 9.95933 15.3993C9.95933 15.6093 10.0993 15.8593 10.5093 15.7793C13.71 14.73 16 11.73 16 8.20001C16 3.78201 12.418 0.200012 8 0.200012" fill="#B7BECB"/>
</svg>
