<svg width="16" height="16" viewBox="0 0 16 16" fill="none" xmlns="http://www.w3.org/2000/svg">
<g clip-path="url(#clip0_281_672)">
<path d="M15.447 2.96195C15.1955 3.07345 14.937 3.16745 14.673 3.24395C14.9876 2.88838 15.2248 2.47119 15.3695 2.01895C15.3853 1.96911 15.3856 1.91565 15.3703 1.86563C15.3551 1.81561 15.325 1.77141 15.2841 1.73888C15.2431 1.70635 15.1933 1.68702 15.1411 1.68346C15.0889 1.6799 15.0369 1.69228 14.992 1.71895C14.4337 2.05037 13.826 2.2904 13.192 2.42995C12.5485 1.80281 11.6859 1.45124 10.7875 1.44995C10.2991 1.45048 9.81639 1.55505 9.37157 1.75668C8.92674 1.95832 8.52998 2.2524 8.20768 2.61935C7.88539 2.9863 7.64497 3.4177 7.50241 3.88482C7.35986 4.35194 7.31846 4.84408 7.38095 5.32845C6.21218 5.22441 5.07606 4.88751 4.03951 4.33759C3.00296 3.78767 2.08695 3.03586 1.34545 2.12645C1.31908 2.09413 1.28526 2.06868 1.2469 2.05229C1.20853 2.0359 1.16676 2.02906 1.12518 2.03235C1.08359 2.03565 1.04342 2.04898 1.00811 2.0712C0.972801 2.09342 0.94341 2.12388 0.922454 2.15995C0.617589 2.68442 0.457144 3.28031 0.457454 3.88695C0.457454 4.71445 0.752454 5.49945 1.27445 6.11295C1.11565 6.05802 0.96191 5.98943 0.814954 5.90795C0.776082 5.8863 0.732271 5.87507 0.687775 5.87534C0.64328 5.87562 0.599613 5.88741 0.561017 5.90955C0.522421 5.93169 0.490207 5.96344 0.467504 6.00171C0.444802 6.03997 0.432383 6.08346 0.431454 6.12795V6.17345C0.431454 7.40845 1.09645 8.52095 2.11245 9.12745C2.02493 9.11869 1.93784 9.10602 1.85145 9.08945C1.80753 9.08109 1.76218 9.08429 1.71986 9.09873C1.67754 9.11318 1.6397 9.13838 1.61005 9.17186C1.58041 9.20533 1.55997 9.24594 1.55075 9.2897C1.54153 9.33346 1.54384 9.37886 1.55745 9.42145C1.73991 9.99116 2.06804 10.5033 2.50936 10.9072C2.95067 11.311 3.48984 11.5926 4.07345 11.724C3.10001 12.3338 1.97364 12.6552 0.824954 12.651C0.581954 12.651 0.336954 12.6365 0.0974539 12.6085C0.039813 12.6023 -0.0182227 12.6157 -0.0673306 12.6465C-0.116439 12.6773 -0.153768 12.7237 -0.173324 12.7783C-0.192879 12.8329 -0.193525 12.8924 -0.175157 12.9474C-0.156789 13.0024 -0.120475 13.0496 -0.0720461 13.0815C1.42232 14.041 3.16103 14.5508 4.93695 14.55C8.43395 14.55 10.622 12.901 11.841 11.5175C13.3615 9.79245 14.2335 7.50945 14.2335 5.25345C14.2335 5.15895 14.232 5.06345 14.229 4.96895C14.8292 4.51681 15.3489 3.96658 15.766 3.34145C15.7971 3.29499 15.8123 3.23965 15.8093 3.18379C15.8063 3.12792 15.7852 3.07455 15.7492 3.03173C15.7132 2.9889 15.6642 2.95893 15.6097 2.94635C15.5552 2.93376 15.4981 2.93924 15.447 2.96195V2.96195Z" fill="#B7BECB"/>
</g>
<defs>
<clipPath id="clip0_281_672">
<rect width="16" height="16" fill="white"/>
</clipPath>
</defs>
</svg>
