<svg width="16" height="16" viewBox="0 0 16 16" fill="none" xmlns="http://www.w3.org/2000/svg">
<path d="M13.5449 3.0111C12.5075 2.53489 11.4128 2.19531 10.2881 2.00084C10.2778 1.99893 10.2673 2.00029 10.2578 2.00475C10.2484 2.0092 10.2406 2.0165 10.2356 2.02563C10.0864 2.29634 9.95106 2.5744 9.82995 2.85876C8.60043 2.67464 7.37676 2.67464 6.17248 2.85876C6.06319 2.59645 5.90183 2.27577 5.76054 2.02563C5.75531 2.01669 5.74749 2.00953 5.73812 2.00511C5.72875 2.00068 5.71826 1.9992 5.70803 2.00084C4.58329 2.19492 3.48858 2.53452 2.45147 3.0111C2.44259 3.01489 2.43511 3.02135 2.43006 3.02957C0.355693 6.12817 -0.212645 9.15104 0.0661153 12.1361C0.0668958 12.1434 0.0691543 12.1505 0.0727556 12.157C0.0763568 12.1635 0.0812266 12.1691 0.0870731 12.1737C1.45564 13.1788 2.78116 13.7888 4.08234 14.1933C4.09246 14.1963 4.10326 14.1961 4.11329 14.1928C4.12332 14.1895 4.1321 14.1832 4.13845 14.1748C4.44697 13.7548 4.72035 13.3101 4.95581 12.8452C4.95901 12.8389 4.96083 12.8319 4.96115 12.8248C4.96147 12.8176 4.96028 12.8105 4.95767 12.8039C4.95505 12.7972 4.95106 12.7912 4.94597 12.7862C4.94087 12.7813 4.93478 12.7774 4.92809 12.7749C4.49695 12.6099 4.07957 12.411 3.67986 12.18C3.6726 12.1757 3.6665 12.1697 3.66211 12.1625C3.65772 12.1553 3.65516 12.1471 3.65467 12.1387C3.65418 12.1303 3.65577 12.1219 3.6593 12.1142C3.66283 12.1066 3.66819 12.0999 3.6749 12.0948C3.75874 12.0319 3.84257 11.9666 3.92279 11.9006C3.92994 11.8947 3.93859 11.891 3.94774 11.8898C3.9569 11.8886 3.96621 11.89 3.97462 11.8938C6.59299 13.0891 9.42769 13.0891 12.0152 11.8938C12.0236 11.8897 12.033 11.8881 12.0423 11.8892C12.0516 11.8903 12.0604 11.894 12.0677 11.8999C12.1479 11.9659 12.2317 12.0319 12.3163 12.0948C12.323 12.0999 12.3284 12.1065 12.3319 12.1142C12.3355 12.1218 12.3371 12.1302 12.3367 12.1386C12.3363 12.147 12.3337 12.1552 12.3294 12.1624C12.325 12.1696 12.319 12.1757 12.3117 12.18C11.9131 12.4129 11.4954 12.6117 11.0633 12.7742C11.0566 12.7768 11.0505 12.7808 11.0455 12.7858C11.0404 12.7909 11.0364 12.797 11.0339 12.8037C11.0313 12.8104 11.0302 12.8175 11.0305 12.8247C11.0309 12.8318 11.0328 12.8388 11.036 12.8452C11.2754 13.3076 11.5484 13.7517 11.8527 14.1741C11.8589 14.1828 11.8676 14.1892 11.8777 14.1926C11.8878 14.196 11.8987 14.1962 11.9088 14.1931C13.2161 13.7888 14.5418 13.1785 15.9104 12.1737C15.9163 12.1694 15.9212 12.1638 15.9248 12.1574C15.9283 12.1511 15.9305 12.144 15.9311 12.1367C16.2647 8.68546 15.3723 5.6876 13.5656 3.0298C13.5611 3.02118 13.5537 3.01447 13.5447 3.01087L13.5449 3.0111ZM5.34657 10.3186C4.55851 10.3186 3.90882 9.59498 3.90882 8.70597C3.90882 7.81718 4.54589 7.09335 5.34657 7.09335C6.154 7.09335 6.79738 7.82349 6.78476 8.70597C6.78476 9.59498 6.14769 10.3186 5.34679 10.3186H5.34657ZM10.6633 10.3186C9.87502 10.3186 9.22555 9.59498 9.22555 8.70597C9.22555 7.81718 9.8624 7.09335 10.6633 7.09335C11.4705 7.09335 12.1139 7.82349 12.101 8.70597C12.101 9.59498 11.4705 10.3186 10.6633 10.3186Z" fill="#B7BECB"/>
</svg>
