<svg width="72" height="72" viewBox="0 0 72 72" fill="none" xmlns="http://www.w3.org/2000/svg">
<rect width="72" height="72" rx="12" fill="#09162E"/>
<path fill-rule="evenodd" clip-rule="evenodd" d="M25.25 34.5C25.25 33.8096 24.6904 33.25 24 33.25C23.3096 33.25 22.75 33.8096 22.75 34.5V45.5833C22.75 46.2737 23.3096 46.8333 24 46.8333C24.6904 46.8333 25.25 46.2737 25.25 45.5833V34.5ZM33.25 34.5C33.25 33.8096 32.6904 33.25 32 33.25C31.3096 33.25 30.75 33.8096 30.75 34.5V45.5833C30.75 46.2737 31.3096 46.8333 32 46.8333C32.6904 46.8333 33.25 46.2737 33.25 45.5833V34.5ZM40 33.25C40.6904 33.25 41.25 33.8096 41.25 34.5V45.5833C41.25 46.2737 40.6904 46.8333 40 46.8333C39.3096 46.8333 38.75 46.2737 38.75 45.5833V34.5C38.75 33.8096 39.3096 33.25 40 33.25ZM49.25 34.5C49.25 33.8096 48.6904 33.25 48 33.25C47.3096 33.25 46.75 33.8096 46.75 34.5V45.5833C46.75 46.2737 47.3096 46.8333 48 46.8333C48.6904 46.8333 49.25 46.2737 49.25 45.5833V34.5Z" fill="white"/>
<path fill-rule="evenodd" clip-rule="evenodd" d="M36.6625 19.1067C36.2572 18.8533 35.7429 18.8533 35.3375 19.1067L22.6709 27.0233C22.198 27.3189 21.9781 27.8919 22.1318 28.4279C22.2855 28.964 22.7757 29.3333 23.3334 29.3333H48.6667C49.2243 29.3333 49.7145 28.964 49.8682 28.4279C50.022 27.8919 49.8021 27.3189 49.3292 27.0233L36.6625 19.1067ZM36 21.6407L44.3082 26.8333H27.6919L36 21.6407ZM21.75 50.5833C21.0596 50.5833 20.5 51.143 20.5 51.8333C20.5 52.5237 21.0596 53.0833 21.75 53.0833H50.25C50.9404 53.0833 51.5 52.5237 51.5 51.8333C51.5 51.143 50.9404 50.5833 50.25 50.5833H21.75Z" fill="#2669F5"/>
</svg>
