<svg width="72" height="72" viewBox="0 0 72 72" fill="none" xmlns="http://www.w3.org/2000/svg">
<rect width="72" height="72" rx="12" fill="#09162E"/>
<path fill-rule="evenodd" clip-rule="evenodd" d="M30.3616 40.9981C31.9135 40.4808 33.6124 40.649 35.0327 41.4607L41.7777 45.3149C41.8198 45.339 41.837 45.3581 41.8426 45.3649C41.8485 45.3721 41.8513 45.3778 41.8534 45.3843C41.8587 45.4004 41.864 45.4411 41.8446 45.4955C41.8252 45.5499 41.7954 45.5781 41.7811 45.5872C41.7754 45.5909 41.7696 45.5936 41.7605 45.5954C41.7519 45.5972 41.7265 45.6011 41.6786 45.5931L31.9797 43.9766C31.2987 43.8631 30.6547 44.3232 30.5412 45.0041C30.4277 45.6851 30.8877 46.3291 31.5687 46.4426L41.2676 48.0591C42.9874 48.3457 44.1803 47.0961 44.3436 45.7214L51.7843 44.3262C51.9003 44.3045 52.0168 44.3623 52.0696 44.4679C52.133 44.5948 52.085 44.7492 51.9608 44.8178L39.6988 51.583C38.005 52.5175 35.9549 52.5377 34.243 51.6367L28.0428 48.3735C26.7291 47.682 25.1498 47.7262 23.8768 48.49L23.1321 48.9368L20.7626 44.1978L30.3616 40.9981ZM22.7743 51.6515C22.2218 51.784 21.6309 51.5245 21.3659 50.9944L18.3977 45.058C17.7853 43.8333 18.3996 42.3502 19.6986 41.9172L29.571 38.6264C31.7977 37.8842 34.2352 38.1255 36.2731 39.29L43.018 43.1443C43.1373 43.2125 43.248 43.2859 43.3504 43.364L51.3236 41.8691C52.5367 41.6416 53.7537 42.2459 54.3057 43.3499C54.969 44.6765 54.4672 46.2902 53.1685 47.0067L40.9065 53.772C38.4763 55.1128 35.5348 55.1417 33.0787 53.849L26.8785 50.5858C26.3375 50.3011 25.6872 50.3193 25.163 50.6338L23.707 51.5074C23.4154 51.6824 23.081 51.7245 22.7743 51.6515Z" fill="#2669F5"/>
<path fill-rule="evenodd" clip-rule="evenodd" d="M30 18.3333C30 17.7811 30.4477 17.3333 31 17.3333H41C41.5523 17.3333 42 17.7811 42 18.3333V18.8333C42 19.3856 41.5523 19.8333 41 19.8333H31C30.4477 19.8333 30 19.3856 30 18.8333V18.3333ZM30.9998 24.8333C30.9998 24.2811 31.4475 23.8333 31.9998 23.8333H39.9998C40.552 23.8333 40.9998 24.2811 40.9998 24.8333V25.3333C40.9998 25.8856 40.552 26.3333 39.9998 26.3333H31.9998C31.4475 26.3333 30.9998 25.8856 30.9998 25.3333V24.8333ZM31 30.3333C30.4477 30.3333 30 30.7811 30 31.3333V31.8333C30 32.3856 30.4477 32.8333 31 32.8333H41C41.5523 32.8333 42 32.3856 42 31.8333V31.3333C42 30.7811 41.5523 30.3333 41 30.3333H31Z" fill="white"/>
</svg>
