<svg width="72" height="72" viewBox="0 0 72 72" fill="none" xmlns="http://www.w3.org/2000/svg">
<rect width="72" height="72" rx="12" fill="#09162E"/>
<path fill-rule="evenodd" clip-rule="evenodd" d="M27 25.25C26.0404 25.25 25.25 26.0404 25.25 27C25.25 27.4641 25.4344 27.9092 25.7626 28.2374C26.0908 28.5656 26.5359 28.75 27 28.75H43.75V25.25H27ZM46.25 28.75V24C46.25 23.3096 45.6904 22.75 45 22.75H27C24.6596 22.75 22.75 24.6596 22.75 27C22.75 28.1272 23.1978 29.2082 23.9948 30.0052C24.7918 30.8022 25.8728 31.25 27 31.25H46.75V36C46.75 36.6904 47.3096 37.25 48 37.25C48.6904 37.25 49.25 36.6904 49.25 36V30C49.25 29.3096 48.6904 28.75 48 28.75H46.25Z" fill="#2669F5"/>
<path fill-rule="evenodd" clip-rule="evenodd" d="M24 25.75C24.6904 25.75 25.25 26.3096 25.25 27V45C25.25 45.9596 26.0404 46.75 27 46.75H46.75V42C46.75 41.3096 47.3096 40.75 48 40.75C48.6904 40.75 49.25 41.3096 49.25 42V48C49.25 48.6904 48.6904 49.25 48 49.25H27C24.6596 49.25 22.75 47.3404 22.75 45V27C22.75 26.3096 23.3096 25.75 24 25.75Z" fill="#2669F5"/>
<path fill-rule="evenodd" clip-rule="evenodd" d="M41.9948 35.9948C42.7918 35.1978 43.8728 34.75 45 34.75H51C51.6904 34.75 52.25 35.3096 52.25 36V42C52.25 42.6904 51.6904 43.25 51 43.25H45C42.6596 43.25 40.75 41.3404 40.75 39C40.75 37.8728 41.1978 36.7918 41.9948 35.9948ZM45 37.25C44.5359 37.25 44.0908 37.4344 43.7626 37.7626C43.4344 38.0908 43.25 38.5359 43.25 39C43.25 39.9596 44.0404 40.75 45 40.75H49.75V37.25H45Z" fill="white"/>
</svg>
