<svg width="54" height="54" viewBox="0 0 54 54" fill="none" xmlns="http://www.w3.org/2000/svg">
<rect width="54" height="54" rx="12" fill="#09162E"/>
<path fill-rule="evenodd" clip-rule="evenodd" d="M24.5487 19.3613C25.2471 19.3613 25.8125 19.9184 25.8125 20.6065C25.8125 21.2947 25.2471 21.8518 24.5487 21.8518L18.4436 22.1951C17.5536 22.1951 16.833 21.4835 16.833 20.6065C16.833 19.7296 17.5536 19.0196 18.4436 19.0196L24.5487 19.3613ZM29.451 35.9719C28.7526 35.9719 28.1873 35.4148 28.1873 34.7267C28.1873 34.0385 28.7526 33.4814 29.451 33.4814L35.556 33.1397C36.446 33.1397 37.1665 33.8497 37.1665 34.7267C37.1665 35.6036 36.446 36.3152 35.556 36.3152L29.451 35.9719Z" fill="white"/>
<path fill-rule="evenodd" clip-rule="evenodd" d="M15.3706 33.6051C15.5305 33.3835 15.8979 33.0262 15.8979 33.0262C17.1981 31.639 20.4319 29.5495 22.0726 28.8785C22.0726 28.8645 23.0481 28.4666 23.5121 28.451H23.5739C24.2849 28.451 24.9501 28.8489 25.2906 29.4887C25.4309 29.7524 25.5615 30.3939 25.6245 30.7034C25.6453 30.8059 25.6588 30.872 25.6627 30.8759C25.8021 31.7903 25.8939 33.1931 25.8939 34.7333C25.8939 36.3499 25.8021 37.8136 25.631 38.714C25.631 38.7296 25.4616 39.5519 25.3523 39.8266C25.1829 40.2229 24.8725 40.5584 24.4861 40.7722C24.1772 40.9251 23.851 41 23.5121 41C23.1558 40.986 22.4907 40.7566 22.2278 40.6505C20.4937 39.9795 17.1823 37.7839 15.9138 36.442C15.7723 36.3026 15.6241 36.1439 15.521 36.0335C15.4659 35.9746 15.4237 35.9295 15.4022 35.9083C15.1394 35.5728 15 35.1609 15 34.7177C15 34.3229 15.1235 33.9266 15.3706 33.6051ZM28.6476 15.5075C28.8186 15.1111 29.1274 14.7757 29.5139 14.5619C29.8227 14.4089 30.1489 14.334 30.4894 14.334C30.8441 14.3481 31.5109 14.5775 31.7738 14.6851C33.5063 15.3546 36.8178 17.5517 38.0879 18.8921C38.226 19.0292 38.3713 19.1849 38.4741 19.295C38.5315 19.3566 38.5757 19.4039 38.5979 19.4257C38.8607 19.7628 39.0001 20.1732 39.0001 20.6148C39.0001 21.0127 38.8766 21.4091 38.6279 21.7289C38.4696 21.9505 38.1022 22.3079 38.1022 22.3079C36.8035 23.6967 33.5681 25.7845 31.9274 26.4555C31.9274 26.4711 30.9534 26.8675 30.4894 26.8831H30.4276C29.715 26.8831 29.0498 26.4867 28.7093 25.8454C28.5704 25.5821 28.4395 24.9427 28.376 24.6325C28.3548 24.5289 28.3411 24.462 28.3372 24.4581C28.1978 23.5437 28.106 22.1409 28.106 20.6007C28.106 18.9841 28.1978 17.5205 28.3688 16.6201C28.3688 16.606 28.5383 15.7821 28.6476 15.5075Z" fill="#2669F5"/>
</svg>
