<svg width="72" height="72" viewBox="0 0 72 72" fill="none" xmlns="http://www.w3.org/2000/svg">
<rect width="72" height="72" rx="12" fill="#09162E"/>
<path fill-rule="evenodd" clip-rule="evenodd" d="M37 28.5C37 27.9477 36.5523 27.5 36 27.5C35.4477 27.5 35 27.9477 35 28.5V33.25H25.5C23.1528 33.25 21.25 35.1528 21.25 37.5V46.5C21.25 48.8472 23.1528 50.75 25.5 50.75H46.5C48.8472 50.75 50.75 48.8472 50.75 46.5V37.5C50.75 35.1528 48.8472 33.25 46.5 33.25H37V28.5ZM23.75 37.5C23.75 36.5335 24.5335 35.75 25.5 35.75H46.5C47.4665 35.75 48.25 36.5335 48.25 37.5V46.5C48.25 47.4665 47.4665 48.25 46.5 48.25H25.5C24.5335 48.25 23.75 47.4665 23.75 46.5V37.5Z" fill="#2669F5"/>
<path fill-rule="evenodd" clip-rule="evenodd" d="M34.25 25.5C34.25 24.5335 35.0335 23.75 36 23.75C36.9665 23.75 37.75 24.5335 37.75 25.5C37.75 26.4665 36.9665 27.25 36 27.25C35.0335 27.25 34.25 26.4665 34.25 25.5ZM36 21.25C33.6528 21.25 31.75 23.1528 31.75 25.5C31.75 27.8472 33.6528 29.75 36 29.75C38.3472 29.75 40.25 27.8472 40.25 25.5C40.25 23.1528 38.3472 21.25 36 21.25ZM30 39.75C28.7574 39.75 27.75 40.7574 27.75 42C27.75 43.2426 28.7574 44.25 30 44.25H30.015C31.2576 44.25 32.265 43.2426 32.265 42C32.265 40.7574 31.2576 39.75 30.015 39.75H30ZM42 39.75C40.7574 39.75 39.75 40.7574 39.75 42C39.75 43.2426 40.7574 44.25 42 44.25H42.015C43.2576 44.25 44.265 43.2426 44.265 42C44.265 40.7574 43.2576 39.75 42.015 39.75H42Z" fill="white"/>
</svg>
