<svg width="44" height="40" viewBox="0 0 44 40" fill="none" xmlns="http://www.w3.org/2000/svg">
<path d="M27.4929 0H16.2218C15.8378 0 15.5441 0.316227 15.5441 0.700215C15.3183 11.61 9.78431 21.9777 0.274963 29.3186C-0.0186745 29.5445 -0.0864368 29.9962 0.116851 30.3125L6.71241 39.7089C6.93829 40.0251 7.36745 40.0929 7.68367 39.867C13.6468 35.3043 18.4353 29.8155 21.8686 23.7169C25.3245 29.8155 30.1131 35.3043 36.0536 39.867C36.3698 40.0929 36.799 40.0251 37.0249 39.7089L43.6204 30.3125C43.8463 29.9962 43.7786 29.5671 43.4623 29.3186C33.9304 21.9777 28.419 11.6326 28.1932 0.700215C28.1706 0.316227 27.8543 0 27.4929 0Z" fill="#FF875B"/>
</svg>
