<svg width="40" height="40" viewBox="0 0 40 40" fill="none" xmlns="http://www.w3.org/2000/svg">
<path d="M6.43293 0H33.5671C37.1341 0 40 2.86586 40 6.43293V33.5671C40 37.1341 37.1341 40 33.5671 40H6.43293C2.86585 40 0 37.1341 0 33.5671V6.43293C0 2.86586 2.86585 0 6.43293 0Z" fill="#2962EF"/>
<path fill-rule="evenodd" clip-rule="evenodd" d="M17.3173 27.6525L20.0002 23.7805L14.36 23.811L9.96976 30C9.66488 30.4878 9.78683 31.0366 9.78683 31.0366C9.78683 31.372 10.1222 31.6768 10.4576 31.6768H30.0307C30.1527 31.6768 30.2746 31.5854 30.2746 31.4329C30.2746 31.372 30.2441 31.311 30.2136 31.2805L26.2197 27.8049C26.1893 27.7744 26.1283 27.7439 26.0673 27.7439H17.3173C17.3173 27.7439 17.2563 27.7439 17.3173 27.6525ZM22.7137 12.3171L19.9698 16.1281L25.4576 16.1585C27.9271 12.6829 30.0002 9.72562 30.1222 9.57318C30.3356 9.2683 30.2746 8.90245 30.2746 8.90245C30.2746 8.56709 29.9393 8.26221 29.6039 8.26221H10.0002C9.78683 8.26221 9.69537 8.50611 9.81732 8.62806L13.4759 12.1037C13.5063 12.1342 13.5673 12.1646 13.6588 12.1646H17.3173L22.6832 12.1951C22.7137 12.1951 22.8051 12.1646 22.7137 12.3171Z" fill="#FEFFFE"/>
</svg>
