<svg width="72" height="72" viewBox="0 0 72 72" fill="none" xmlns="http://www.w3.org/2000/svg">
<rect width="72" height="72" rx="12" fill="#09162E"/>
<path fill-rule="evenodd" clip-rule="evenodd" d="M20.75 30C20.75 24.8914 24.8914 20.75 30 20.75C35.1086 20.75 39.25 24.8914 39.25 30C39.25 35.1086 35.1086 39.25 30 39.25C24.8914 39.25 20.75 35.1086 20.75 30ZM30 18.25C23.5107 18.25 18.25 23.5107 18.25 30C18.25 36.4893 23.5107 41.75 30 41.75C36.4893 41.75 41.75 36.4893 41.75 30C41.75 23.5107 36.4893 18.25 30 18.25ZM47.874 31.8269C47.2758 31.4823 46.5115 31.6878 46.1668 32.2859C45.8221 32.8841 46.0276 33.6484 46.6258 33.9931C47.8557 34.7018 48.906 35.684 49.6954 36.8638C50.4848 38.0436 50.9921 39.3892 51.1779 40.7965C51.3638 42.2037 51.2233 43.6349 50.7673 44.9792C50.3113 46.3234 49.5521 47.5447 48.5483 48.5485C47.5446 49.5522 46.3233 50.3115 44.9791 50.7675C43.6348 51.2234 42.2036 51.364 40.7963 51.1781C39.3891 50.9922 38.0434 50.4849 36.8637 49.6955C35.6839 48.9062 34.7016 47.8558 33.9929 46.6259C33.6483 46.0278 32.884 45.8223 32.2858 46.1669C31.6876 46.5116 31.4821 47.2759 31.8268 47.8741C32.7271 49.4364 33.9748 50.7706 35.4734 51.7733C36.9721 52.7761 38.6814 53.4204 40.469 53.6565C42.2566 53.8927 44.0746 53.7142 45.7822 53.1349C47.4897 52.5557 49.0411 51.5912 50.3161 50.3162C51.5911 49.0412 52.5556 47.4899 53.1348 45.7823C53.7141 44.0747 53.8925 42.2567 53.6564 40.4691C53.4203 38.6815 52.7759 36.9722 51.7732 35.4736C50.7705 33.9749 49.4363 32.7272 47.874 31.8269Z" fill="#2669F5"/>
<path fill-rule="evenodd" clip-rule="evenodd" d="M28.5 25.75C27.8096 25.75 27.25 26.3096 27.25 27C27.25 27.6904 27.8096 28.25 28.5 28.25H28.75V33C28.75 33.6904 29.3096 34.25 30 34.25C30.6904 34.25 31.25 33.6904 31.25 33V27C31.25 26.3096 30.6904 25.75 30 25.75H28.5ZM44.8339 38.5661C44.3458 38.078 43.5543 38.078 43.0662 38.5661C42.578 39.0543 42.578 39.8457 43.0662 40.3339L43.2323 40.5L39.9162 43.8161C39.428 44.3043 39.428 45.0957 39.9162 45.5839C40.4043 46.072 41.1958 46.072 41.6839 45.5839L45.8839 41.3839C46.1184 41.1495 46.25 40.8315 46.25 40.5C46.25 40.1685 46.1184 39.8505 45.8839 39.6161L44.8339 38.5661Z" fill="white"/>
</svg>
