<svg width="72" height="72" viewBox="0 0 72 72" fill="none" xmlns="http://www.w3.org/2000/svg">
<rect width="72" height="72" rx="12" fill="#09162E"/>
<path fill-rule="evenodd" clip-rule="evenodd" d="M36.559 19.882C36.2071 19.706 35.7929 19.706 35.441 19.882L20.441 27.382C20.0175 27.5937 19.75 28.0265 19.75 28.5C19.75 28.9735 20.0175 29.4063 20.441 29.618L35.441 37.118C35.7929 37.294 36.2071 37.294 36.559 37.118L51.559 29.618C51.9825 29.4063 52.25 28.9735 52.25 28.5C52.25 28.0265 51.9825 27.5937 51.559 27.382L36.559 19.882ZM36 34.6025L23.7951 28.5L36 22.3975L48.2049 28.5L36 34.6025ZM21.559 42.382C20.9416 42.0732 20.1907 42.3235 19.882 42.941C19.5733 43.5585 19.8235 44.3093 20.441 44.618L35.441 52.118C35.7929 52.294 36.2071 52.294 36.559 52.118L51.559 44.618C52.1765 44.3093 52.4268 43.5585 52.1181 42.941C51.8093 42.3235 51.0585 42.0732 50.441 42.382L36 49.6025L21.559 42.382Z" fill="#2669F5"/>
<path fill-rule="evenodd" clip-rule="evenodd" d="M19.882 35.441C20.1907 34.8235 20.9416 34.5732 21.559 34.882L36 42.1025L50.441 34.882C51.0585 34.5732 51.8093 34.8235 52.1181 35.441C52.4268 36.0585 52.1765 36.8093 51.559 37.118L36.559 44.618C36.2071 44.794 35.7929 44.794 35.441 44.618L20.441 37.118C19.8235 36.8093 19.5733 36.0585 19.882 35.441Z" fill="white"/>
</svg>
