<svg width="54" height="54" viewBox="0 0 54 54" fill="none" xmlns="http://www.w3.org/2000/svg">
<rect width="54" height="54" rx="12" fill="#09162E"/>
<path d="M16.816 21.2056C15.8201 21.2056 15 22.0257 15 23.0411V38.1354C15 39.1313 15.8201 39.9515 16.816 39.9515C17.8314 39.9515 18.6515 39.1313 18.6515 38.1354V23.0411C18.6515 22.0257 17.8314 21.2056 16.816 21.2056Z" fill="white"/>
<path d="M27.0687 14C26.0728 14 25.2527 14.8201 25.2527 15.8355V38.1353C25.2527 39.1312 26.0728 39.9513 27.0687 39.9513C28.0841 39.9513 28.9042 39.1312 28.9042 38.1353V15.8355C28.9042 14.8201 28.0841 14 27.0687 14Z" fill="#2669F5"/>
<path d="M37.1839 29.1724C36.1685 29.1724 35.3484 29.9925 35.3484 31.0079V38.1352C35.3484 39.1311 36.1685 39.9513 37.1644 39.9513C38.1798 39.9513 38.9999 39.1311 38.9999 38.1352V31.0079C38.9999 29.9925 38.1798 29.1724 37.1839 29.1724Z" fill="white"/>
</svg>
