<svg width="54" height="54" viewBox="0 0 54 54" fill="none" xmlns="http://www.w3.org/2000/svg">
<rect width="54" height="54" rx="12" fill="#09162E"/>
<path d="M27 14C23.5522 14 20.2456 15.3696 17.8076 17.8076C15.3696 20.2456 14 23.5522 14 27C14 30.4478 15.3696 33.7544 17.8076 36.1924C20.2456 38.6304 23.5522 40 27 40C30.4478 40 33.7544 38.6304 36.1924 36.1924C38.6304 33.7544 40 30.4478 40 27C40 23.5522 38.6304 20.2456 36.1924 17.8076C33.7544 15.3696 30.4478 14 27 14Z" fill="#2669F5"/>
<mask id="mask0_168_812" style="mask-type:alpha" maskUnits="userSpaceOnUse" x="14" y="14" width="26" height="26">
<path d="M27 14C23.5522 14 20.2456 15.3696 17.8076 17.8076C15.3696 20.2456 14 23.5522 14 27C14 30.4478 15.3696 33.7544 17.8076 36.1924C20.2456 38.6304 23.5522 40 27 40C30.4478 40 33.7544 38.6304 36.1924 36.1924C38.6304 33.7544 40 30.4478 40 27C40 23.5522 38.6304 20.2456 36.1924 17.8076C33.7544 15.3696 30.4478 14 27 14Z" fill="white"/>
</mask>
<g mask="url(#mask0_168_812)">
<path fill-rule="evenodd" clip-rule="evenodd" d="M31.1794 21.8226L32.5062 20.8275C32.7715 20.6285 32.9706 20.3631 33.1032 19.9651L35.0271 16.5817C36.4004 17.6336 37.5678 18.9685 38.4442 20.4959H38.477L38.676 20.8276C39.6711 22.6852 40.2682 24.8744 40.2682 27.13C40.2682 30.4471 39.0077 33.4988 37.0175 35.8207L36.9512 35.7543C36.9497 35.7524 36.9482 35.7504 36.9467 35.7484C36.3396 36.45 35.6538 37.0975 34.8945 37.6781C34.8945 37.6781 34.0984 36.3513 33.7667 35.6879C33.1332 34.4786 32.4497 33.3692 32.2804 33.0975C32.0019 33.0618 29.6537 32.6937 29.6537 30.4471C29.6537 29.7173 29.6537 27.7934 32.9707 27.7934C34.9609 27.7934 36.2878 27.13 36.2878 26.4666C36.2878 24.4764 35.6243 23.813 35.6243 23.813C35.6508 23.7927 35.6762 23.7705 35.7007 23.7465H35.5579C35.2262 23.7465 33.833 24.0119 32.9706 24.5426C32.3431 24.9419 32.2184 25.3412 32.1167 25.6666C31.9818 26.0983 31.8875 26.4002 30.715 26.4002C30.4496 26.4002 30.1179 25.2724 30.1179 24.808C30.1179 24.6488 30.6274 24.3622 31.001 24.152C31.0944 24.0995 31.1794 24.0517 31.2457 24.0119C31.5111 23.8792 31.6437 23.5475 31.5774 23.2822L30.9803 22.5524C30.914 22.287 30.9803 22.0217 31.1794 21.8226ZM21.0292 26.4665C21.0292 27.2626 21.0292 27.7933 20.4321 27.7933C20.1715 27.7933 20.0626 27.5405 19.9398 27.2556C19.7813 26.8878 19.5997 26.4665 19.039 26.4665H18.4575C17.9099 26.6088 17.7123 26.9555 17.7123 27.2627V27.9261C17.7123 28.2578 17.9777 28.4568 18.3757 28.4568C18.9064 28.4568 18.9728 28.5895 18.9728 28.9212C18.9728 29.2529 19.3045 29.7837 19.7025 29.7837H20.963C20.963 29.8057 20.9631 29.8277 20.9633 29.8495L21.0292 29.7836H21.5599H22.6214C23.0858 29.7836 23.6828 30.2479 24.0809 30.646C25.0096 31.7738 25.5404 31.7738 26.3365 31.7738V31.7744C26.3366 31.7741 26.3366 31.7739 26.3366 31.7739C26.7347 31.7739 27 32.5036 27 32.769C27 34.9583 25.6732 35.0909 25.6732 35.0909C25.6731 35.0909 25.6731 35.0909 25.673 35.0909C25.6414 35.1857 25.5272 35.3969 25.3679 35.6914C24.8577 36.6347 23.885 38.4329 23.6828 40.0001C23.2406 39.8674 22.7984 39.7053 22.3562 39.5333V39.5358L22.3148 39.5172C22.1074 39.4363 21.9 39.3533 21.6926 39.2703L21.6926 39.2703V39.2372L21.0293 38.9387V37.7446C21.0293 37.1687 20.7794 36.3928 20.4964 35.5145C20.1275 34.3695 19.7025 33.0504 19.7025 31.7739C19.7025 30.7157 18.4788 29.9951 17.7141 29.5448C17.5199 29.4304 17.3554 29.3335 17.2479 29.2529C17.2232 29.2344 17.1983 29.2157 17.1732 29.197C16.3906 28.6105 15.4443 27.9014 15.0587 27.13L14.6163 26.4665H13.7317L13.8644 25.4714C13.8691 25.4344 13.874 25.3975 13.879 25.3606L13.8645 25.3388C14.1299 22.7515 15.523 20.3632 15.523 20.3632L15.6041 20.3903C17.2394 17.6243 19.8535 15.5091 23.0194 14.5251C22.0906 15.7856 21.6263 17.1788 21.6263 17.7759C21.6263 18.5719 22.4887 18.771 23.6165 18.771C24.9433 18.771 25.0096 19.6334 25.0096 19.8324V23.1495C25.0096 24.4763 23.8819 24.4763 23.0194 24.4763C21.012 24.4763 21.0214 25.544 21.0284 26.3333C21.0288 26.3787 21.0292 26.4232 21.0292 26.4665Z" fill="white"/>
</g>
</svg>
