<svg width="54" height="54" viewBox="0 0 54 54" fill="none" xmlns="http://www.w3.org/2000/svg">
<rect width="54" height="54" rx="12" fill="#09162E"/>
<path fill-rule="evenodd" clip-rule="evenodd" d="M15.4622 14.0743C16.8465 12.6837 18.8115 12 21.1339 12H32.8673C35.2203 12 37.1885 12.6817 38.5668 14.077C39.9431 15.4704 40.5999 17.4427 40.5999 19.762V34.224C40.5999 36.5744 39.9451 38.5531 38.5652 39.9438C37.1841 41.3357 35.2142 42 32.8673 42H21.1339C18.8176 42 16.851 41.3338 15.4638 39.9466C14.0764 38.5593 13.3999 36.582 13.3999 34.224V19.762C13.3999 17.4351 14.0785 15.4642 15.4622 14.0743ZM16.8796 15.4852C15.9603 16.4088 15.3999 17.8189 15.3999 19.762V34.224C15.3999 36.206 15.9624 37.6167 16.878 38.5324C17.7938 39.4482 19.1942 40 21.1339 40H32.8673C34.845 40 36.2414 39.4462 37.1455 38.5351C38.0507 37.6229 38.5999 36.2136 38.5999 34.224V19.762C38.5999 17.8113 38.0527 16.4026 37.1439 15.4825C36.237 14.5643 34.8389 14 32.8673 14H21.1339C19.2003 14 17.7983 14.5623 16.8796 15.4852Z" fill="#2669F5"/>
<path fill-rule="evenodd" clip-rule="evenodd" d="M21.5122 19.51V19.524C20.9088 19.524 20.4202 20.014 20.4202 20.616C20.4202 21.218 20.9088 21.708 21.5122 21.708H25.6968C26.3002 21.708 26.7902 21.218 26.7902 20.6006C26.7902 20 26.3002 19.51 25.6968 19.51H21.5122ZM32.4882 28.036H21.5122C20.9088 28.036 20.4202 27.546 20.4202 26.944C20.4202 26.342 20.9088 25.8506 21.5122 25.8506H32.4882C33.0902 25.8506 33.5802 26.342 33.5802 26.944C33.5802 27.546 33.0902 28.036 32.4882 28.036ZM32.4879 34.4341H21.5119C21.0919 34.4901 20.6859 34.2801 20.4619 33.9301C20.2379 33.5661 20.2379 33.1041 20.4619 32.7541C20.6859 32.3901 21.0919 32.1941 21.5119 32.2361H32.4879C33.0465 32.2921 33.4679 32.7681 33.4679 33.3421C33.4679 33.9007 33.0465 34.3781 32.4879 34.4341Z" fill="white"/>
</svg>
