<svg width="54" height="54" viewBox="0 0 54 54" fill="none" xmlns="http://www.w3.org/2000/svg">
<rect width="54" height="54" rx="12" fill="#09162E"/>
<path fill-rule="evenodd" clip-rule="evenodd" d="M35.0469 24.0444C35.9877 24.7733 36.1595 26.1269 35.4305 27.0677L28.9279 35.4601C28.5763 35.9139 28.0583 36.2086 27.4886 36.279C26.9189 36.3493 26.3447 36.1895 25.8933 35.8349L20.0254 31.2256L14.708 38.1367C13.9822 39.0799 12.6292 39.2563 11.6859 38.5305C10.7427 37.8047 10.5664 36.4517 11.2921 35.5085L17.9369 26.8722C18.2878 26.4163 18.8063 26.1195 19.3771 26.048C19.948 25.9766 20.5237 26.1363 20.9761 26.4917L26.8497 31.1055L32.0236 24.428C32.7525 23.4872 34.1061 23.3154 35.0469 24.0444Z" fill="#2669F5"/>
<circle cx="38.1653" cy="19.8347" r="2.83469" fill="white"/>
</svg>
