<svg width="54" height="54" viewBox="0 0 54 54" fill="none" xmlns="http://www.w3.org/2000/svg">
<rect width="54" height="54" rx="12" fill="#09162E"/>
<path d="M27.0211 41C26.8477 41 26.6744 40.9602 26.5179 40.8792L21.4764 38.2695C20.0458 37.5281 18.9267 36.6962 18.0529 35.727C16.1403 33.6073 15.0762 30.8864 15.0592 28.0639L15.0001 18.774C14.993 17.7018 15.685 16.7394 16.7196 16.377L25.9767 13.1495C26.5264 12.9532 27.1395 12.9504 27.699 13.1399L36.9914 16.2576C38.0316 16.6049 38.7349 17.5604 38.7405 18.6312L38.7997 27.928C38.818 30.7464 37.7906 33.4783 35.9076 35.6213C35.0436 36.6042 33.9344 37.4485 32.5179 38.2036L27.5214 40.8723C27.3664 40.9561 27.1945 40.9986 27.0211 41" stroke="#2669F5" stroke-width="2"/>
<path d="M25.946 30.2492C25.6754 30.2506 25.4048 30.1531 25.1962 29.9527L22.5127 27.3717C22.0983 26.9709 22.0941 26.3202 22.5042 25.9165C22.9143 25.5116 23.5838 25.5074 23.9996 25.9069L25.9305 27.763L30.6451 23.1146C31.0566 22.7096 31.7261 22.7055 32.1405 23.105C32.5563 23.5059 32.5605 24.158 32.1503 24.5602L26.6916 29.943C26.4858 30.1462 26.2166 30.2478 25.946 30.2492Z" fill="white"/>
</svg>
