<svg width="40" height="40" viewBox="0 0 40 40" fill="none" xmlns="http://www.w3.org/2000/svg">
<path d="M37.897 1.57263L22.385 13.0936L25.2535 6.29639L37.897 1.57263Z" fill="#E2761B" stroke="#E2761B" stroke-width="0.116924" stroke-linecap="round" stroke-linejoin="round"/>
<path d="M2.08716 1.57275L17.4744 13.2028L14.7461 6.29651L2.08716 1.57275Z" fill="#E4761B" stroke="#E4761B" stroke-width="0.116924" stroke-linecap="round" stroke-linejoin="round"/>
<path d="M32.3159 28.2783L28.1846 34.6078L37.0242 37.0398L39.5652 28.4186L32.3159 28.2783Z" fill="#E4761B" stroke="#E4761B" stroke-width="0.116924" stroke-linecap="round" stroke-linejoin="round"/>
<path d="M0.450195 28.4186L2.97576 37.0398L11.8153 34.6078L7.68392 28.2783L0.450195 28.4186Z" fill="#E4761B" stroke="#E4761B" stroke-width="0.116924" stroke-linecap="round" stroke-linejoin="round"/>
<path d="M11.3162 17.5836L8.85303 21.3096L17.6302 21.6994L17.3183 12.2675L11.3162 17.5836Z" fill="#E4761B" stroke="#E4761B" stroke-width="0.116924" stroke-linecap="round" stroke-linejoin="round"/>
<path d="M28.6677 17.5836L22.5877 12.1583L22.385 21.6994L31.1465 21.3096L28.6677 17.5836Z" fill="#E4761B" stroke="#E4761B" stroke-width="0.116924" stroke-linecap="round" stroke-linejoin="round"/>
<path d="M11.8154 34.6078L17.0848 32.0355L12.5326 28.481L11.8154 34.6078Z" fill="#E4761B" stroke="#E4761B" stroke-width="0.116924" stroke-linecap="round" stroke-linejoin="round"/>
<path d="M22.8999 32.0355L28.1848 34.6078L27.4522 28.481L22.8999 32.0355Z" fill="#E4761B" stroke="#E4761B" stroke-width="0.116924" stroke-linecap="round" stroke-linejoin="round"/>
<path d="M28.1848 34.6078L22.8999 32.0355L23.3208 35.4809L23.274 36.9307L28.1848 34.6078Z" fill="#D7C1B3" stroke="#D7C1B3" stroke-width="0.116924" stroke-linecap="round" stroke-linejoin="round"/>
<path d="M11.8154 34.6078L16.7263 36.9307L16.6951 35.4809L17.0848 32.0355L11.8154 34.6078Z" fill="#D7C1B3" stroke="#D7C1B3" stroke-width="0.116924" stroke-linecap="round" stroke-linejoin="round"/>
<path d="M16.8041 26.2049L12.4077 24.9109L15.5101 23.4922L16.8041 26.2049Z" fill="#233447" stroke="#233447" stroke-width="0.116924" stroke-linecap="round" stroke-linejoin="round"/>
<path d="M23.1802 26.2049L24.4742 23.4922L27.5922 24.9109L23.1802 26.2049Z" fill="#233447" stroke="#233447" stroke-width="0.116924" stroke-linecap="round" stroke-linejoin="round"/>
<path d="M11.8154 34.6078L12.5637 28.2783L7.68408 28.4186L11.8154 34.6078Z" fill="#CD6116" stroke="#CD6116" stroke-width="0.116924" stroke-linecap="round" stroke-linejoin="round"/>
<path d="M27.4363 28.2783L28.1845 34.6078L32.3159 28.4186L27.4363 28.2783Z" fill="#CD6116" stroke="#CD6116" stroke-width="0.116924" stroke-linecap="round" stroke-linejoin="round"/>
<path d="M31.1465 21.3094L22.385 21.6993L23.1957 26.2048L24.4897 23.4921L27.6075 24.9108L31.1465 21.3094Z" fill="#CD6116" stroke="#CD6116" stroke-width="0.116924" stroke-linecap="round" stroke-linejoin="round"/>
<path d="M12.4066 24.9108L15.5246 23.4921L16.8028 26.2048L17.6291 21.6993L8.85205 21.3094L12.4066 24.9108Z" fill="#CD6116" stroke="#CD6116" stroke-width="0.116924" stroke-linecap="round" stroke-linejoin="round"/>
<path d="M8.85303 21.3094L12.5323 28.4809L12.4075 24.9108L8.85303 21.3094Z" fill="#E4751F" stroke="#E4751F" stroke-width="0.116924" stroke-linecap="round" stroke-linejoin="round"/>
<path d="M27.6078 24.9108L27.4519 28.4809L31.1467 21.3094L27.6078 24.9108Z" fill="#E4751F" stroke="#E4751F" stroke-width="0.116924" stroke-linecap="round" stroke-linejoin="round"/>
<path d="M17.6302 21.6993L16.804 26.2048L17.8329 31.5209L18.0668 24.5211L17.6302 21.6993Z" fill="#E4751F" stroke="#E4751F" stroke-width="0.116924" stroke-linecap="round" stroke-linejoin="round"/>
<path d="M22.3853 21.6993L21.9644 24.5055L22.1514 31.5209L23.196 26.2048L22.3853 21.6993Z" fill="#E4751F" stroke="#E4751F" stroke-width="0.116924" stroke-linecap="round" stroke-linejoin="round"/>
<path d="M23.1959 26.2048L22.1514 31.5209L22.8998 32.0354L27.452 28.4809L27.6079 24.9108L23.1959 26.2048Z" fill="#F6851B" stroke="#F6851B" stroke-width="0.116924" stroke-linecap="round" stroke-linejoin="round"/>
<path d="M12.4077 24.9108L12.5324 28.4809L17.0847 32.0354L17.833 31.5209L16.8041 26.2048L12.4077 24.9108Z" fill="#F6851B" stroke="#F6851B" stroke-width="0.116924" stroke-linecap="round" stroke-linejoin="round"/>
<path d="M23.274 36.9306L23.3208 35.4807L22.9311 35.1378H17.0536L16.6951 35.4807L16.7263 36.9306L11.8154 34.6077L13.5303 36.0107L17.0068 38.4273H22.9778L26.4699 36.0107L28.1848 34.6077L23.274 36.9306Z" fill="#C0AD9E" stroke="#C0AD9E" stroke-width="0.116924" stroke-linecap="round" stroke-linejoin="round"/>
<path d="M22.8994 32.0354L22.1511 31.5209H17.8327L17.0843 32.0354L16.6946 35.4807L17.0531 35.1378H22.9306L23.3203 35.4807L22.8994 32.0354Z" fill="#161616" stroke="#161616" stroke-width="0.116924" stroke-linecap="round" stroke-linejoin="round"/>
<path d="M38.5522 13.8419L39.8774 7.48122L37.8974 1.57263L22.8999 12.7038L28.6682 17.5835L36.8218 19.9687L38.6302 17.8641L37.8507 17.3029L39.0979 16.1649L38.1312 15.4165L39.3784 14.4655L38.5522 13.8419Z" fill="#763D16" stroke="#763D16" stroke-width="0.116924" stroke-linecap="round" stroke-linejoin="round"/>
<path d="M0.122803 7.48134L1.44795 13.842L0.606091 14.4656L1.85328 15.4166L0.902299 16.165L2.14949 17.303L1.37 17.8642L3.16284 19.9689L11.3164 17.5837L17.0847 12.704L2.08713 1.57275L0.122803 7.48134Z" fill="#763D16" stroke="#763D16" stroke-width="0.116924" stroke-linecap="round" stroke-linejoin="round"/>
<path d="M36.8215 19.9688L28.6679 17.5836L31.1467 21.3095L27.4519 28.4809L32.3159 28.4185H39.5652L36.8215 19.9688Z" fill="#F6851B" stroke="#F6851B" stroke-width="0.116924" stroke-linecap="round" stroke-linejoin="round"/>
<path d="M11.3164 17.5836L3.16284 19.9688L0.450195 28.4185H7.68392L12.5324 28.4809L8.85317 21.3095L11.3164 17.5836Z" fill="#F6851B" stroke="#F6851B" stroke-width="0.116924" stroke-linecap="round" stroke-linejoin="round"/>
<path d="M22.3852 21.6994L22.8997 12.704L25.2693 6.29651H14.7461L17.0846 12.704L17.6302 21.6994L17.8173 24.5367L17.8329 31.521H22.1513L22.1825 24.5367L22.3852 21.6994Z" fill="#F6851B" stroke="#F6851B" stroke-width="0.116924" stroke-linecap="round" stroke-linejoin="round"/>
</svg>
