<svg width="40" height="40" viewBox="0 0 40 40" fill="none" xmlns="http://www.w3.org/2000/svg">
<path d="M33.4482 0.268921H15.299V24.6266H39.6567V6.6063C39.6666 3.18471 36.8698 0.268921 33.4482 0.268921ZM9.72525 0.268921H6.68053C3.25896 0.268921 0.333252 3.05577 0.333252 6.6162V9.66092H9.72525V0.268921ZM0.333252 15.3635H9.72525V24.7555H0.333252V15.3635ZM30.2746 39.7212H33.3192C36.7408 39.7212 39.6666 36.9344 39.6666 33.374V30.3392H30.2746V39.7212ZM15.299 30.3392H24.691V39.7313H15.299V30.3392ZM0.333252 30.3392V33.3839C0.333252 36.8055 3.12011 39.7313 6.68053 39.7313H9.72525V30.3392H0.333252Z" fill="black"/>
</svg>
