<svg width="40" height="40" viewBox="0 0 40 40" fill="none" xmlns="http://www.w3.org/2000/svg">
<path d="M20.0001 39.4001C30.7144 39.4001 39.4001 30.7144 39.4001 20.0001C39.4001 9.28577 30.7144 0.600098 20.0001 0.600098C9.28577 0.600098 0.600098 9.28577 0.600098 20.0001C0.600098 30.7144 9.28577 39.4001 20.0001 39.4001Z" fill="url(#paint0_linear_172_1083)"/>
<path d="M28.4901 27.7301L21.9301 11.87C21.5601 11.05 21.0101 10.65 20.2851 10.65H19.7051C18.9801 10.65 18.4301 11.05 18.0601 11.87L15.2051 18.78H13.0451C12.4001 18.785 11.8751 19.305 11.8701 19.955V19.97C11.8751 20.615 12.4001 21.14 13.0451 21.145H14.2051L11.4801 27.7301C11.4301 27.8751 11.4001 28.0251 11.4001 28.1801C11.4001 28.5501 11.5151 28.8401 11.7201 29.0651C11.9251 29.2901 12.2201 29.4001 12.5901 29.4001C12.8351 29.3951 13.0701 29.3201 13.2651 29.1751C13.4751 29.0301 13.6201 28.8201 13.7351 28.5801L16.7351 21.14H18.8151C19.4601 21.135 19.9851 20.615 19.9901 19.965V19.935C19.9851 19.29 19.4601 18.765 18.8151 18.76H17.7051L19.9951 13.055L26.2351 28.5751C26.3501 28.8151 26.4951 29.0251 26.7051 29.1701C26.9001 29.3151 27.1401 29.3901 27.3801 29.3951C27.7501 29.3951 28.0401 29.2851 28.2501 29.0601C28.4601 28.8351 28.5701 28.5451 28.5701 28.1751C28.5751 28.0251 28.5501 27.8701 28.4901 27.7301Z" fill="white"/>
<defs>
<linearGradient id="paint0_linear_172_1083" x1="34.4645" y1="7.82942" x2="5.59726" y2="32.1182" gradientUnits="userSpaceOnUse">
<stop stop-color="#B6509E"/>
<stop offset="1" stop-color="#2EBAC6"/>
</linearGradient>
</defs>
</svg>
